<?xml version="1.0" encoding="utf-8"?>
<!-- Generator: Adobe Illustrator 16.0.0, SVG Export Plug-In . SVG Version: 6.00 Build 0)  -->
<!DOCTYPE svg PUBLIC "-//W3C//DTD SVG 1.1//EN" "http://www.w3.org/Graphics/SVG/1.1/DTD/svg11.dtd">
<svg version="1.1" id="Layer_1" xmlns="http://www.w3.org/2000/svg" xmlns:xlink="http://www.w3.org/1999/xlink" x="0px" y="0px"
	 width="512px" height="512px" viewBox="0 0 512 512" enable-background="new 0 0 512 512" xml:space="preserve">
<g>
	<path fill-rule="evenodd" clip-rule="evenodd" d="M332.187,66.367c4.769,1.546,9.769,2.603,14.264,4.728
		c16.198,7.658,24.967,25.562,21.151,42.376c-4.342,19.135-18.912,31.517-37.862,31.175c-7.984-0.145-15.938-2.021-24.222-3.153
		c2.794,3.758,5.594,7.856,8.729,11.677c7.356,8.963,13.226,18.644,17.253,29.642c2.332,6.372,6.021,12.42,9.992,17.975
		c4.881,6.825,9.539,8.308,17.227,4.865c10.144-4.542,20.824-4.584,31.443-5.691c14.621-1.524,20.416,10.459,18.516,21.023
		c-0.973,5.413-3.479,9.887-9.313,11.419c-21.499,5.644-43.012,11.127-65.274,13.111c-7.865,0.7-13.4-2.111-17.496-8.458
		c-3.577-5.541-6.881-11.264-10.609-16.699c-4.021-5.863-6.653-6.312-11.912-1.545c-7.273,6.595-14.431,13.366-21.119,20.546
		c-7.896,8.477-8.541,13.828-1.815,23.421c9.772,13.938,20.361,27.303,30.618,40.899c1.849,2.451,3.816,4.811,5.682,7.25
		c9.853,12.89,4.488,28.055-11.492,31.823c-12.374,2.918-24.883,5.259-37.3,8.001c-18.848,4.162-37.675,8.421-56.499,12.699
		c-8.056,1.833-15.256-0.043-21.584-5.077c-7.342-5.84-8.191-14.578-2.361-21.953c3.981-5.033,9.309-7.854,15.501-9.193
		c15.427-3.331,30.852-6.672,46.277-10.008c0.896-0.194,1.813-0.326,2.682-0.606c5.414-1.762,6.208-4.213,2.097-8.094
		c-7.365-6.956-15.019-13.607-22.56-20.378c-9.028-8.104-18.125-16.134-27.084-24.313c-14.056-12.831-15.677-27.278-3.143-41.699
		c11.247-12.94,23.84-24.721,35.997-36.854c5.212-5.204,10.999-9.831,16.207-15.038c5.696-5.693,5.399-9.461-0.955-14.453
		c-14.139-11.104-29.491-13.624-46.106-6.017c-10.868,4.974-21.688,10.054-32.587,14.961c-6.427,2.894-13.09,4.277-20.124,2.254
		c-7.723-2.22-11.619-7.8-12.816-15.271c-1.104-6.893,2.38-12.232,8.097-15.286c9.851-5.263,20.006-10.004,30.25-14.47
		c13.763-6,27.826-11.315,41.568-17.362c6.107-2.688,11.342-1.726,17.115,0.844c20.286,9.024,40.714,17.732,61.105,26.521
		c1.797,0.775,3.712,1.274,6.112,2.083c-2.165-7.054-4.505-13.423-6.065-19.978c-5.811-24.39,6.333-42.557,31.078-46.922
		c0.729-0.129,1.414-0.513,2.12-0.777C326.042,66.367,329.114,66.367,332.187,66.367z"/>
	<path fill-rule="evenodd" clip-rule="evenodd" d="M225.258,445.229c-3.771-1.955-7.935-3.404-11.227-5.974
		c-6.675-5.202-8.375-12.499-3.931-19.638c11.189-17.972,22.587-35.832,34.591-53.263c6.044-8.775,16.29-10,26.155-11.523
		c6.726-1.038,13.204-3.687,19.93-4.7c3.088-0.467,7.091,0.432,9.616,2.215c2.82,1.991,0.406,5.08-1.193,7.258
		c-18.989,25.863-37.905,51.781-57.224,77.396c-2.671,3.54-7.407,5.524-11.187,8.229
		C228.945,445.229,227.101,445.229,225.258,445.229z"/>
	<path fill-rule="evenodd" clip-rule="evenodd" d="M89.753,242.431c2.68-4.201,6.681-5.824,11.49-6.365
		c18.376-2.066,36.74-1.98,55.1,0.057c8.116,0.9,13.061,9.168,9.707,16.585c-0.609,1.347-3.07,2.62-4.684,2.629
		c-20.251,0.127-40.505-0.037-60.758-0.002c-5.885,0.009-8.543-3.825-10.855-8.295C89.753,245.504,89.753,243.968,89.753,242.431z"
		/>
	<path fill-rule="evenodd" clip-rule="evenodd" d="M151.941,298.532c-15.5,0-31,0.073-46.5-0.065
		c-2.863-0.025-5.826-0.578-8.555-1.463c-4.884-1.589-6.757-4.999-6.441-10.35c0.282-4.775,3.209-7.283,7.455-8.075
		c3.737-0.696,7.614-0.851,11.431-0.872c22.555-0.12,45.12,0.201,67.665-0.307c13.119-0.296,20.795,7.611,28.184,16.424
		c1.952,2.329,0.264,3.765-2.148,3.95c-4.126,0.316-8.274,0.446-12.413,0.463c-12.893,0.057-25.786,0.02-38.679,0.02
		C151.941,298.351,151.941,298.441,151.941,298.532z"/>
	<path fill-rule="evenodd" clip-rule="evenodd" d="M194.429,195.414c-9.805,14.112-22.118,21.452-38.727,21.083
		c-16.248-0.36-32.503-0.447-48.752-0.792c-3.18-0.068-6.484-0.331-9.486-1.279c-5.082-1.605-7.317-5.751-6.84-11.13
		c0.459-5.183,4.229-6.665,8.435-7.672c0.737-0.176,1.523-0.201,2.286-0.202C132.029,195.413,162.713,195.414,194.429,195.414z"/>
</g>
</svg>
